<svg width="70" height="70" viewBox="0 0 70 70" fill="none" xmlns="http://www.w3.org/2000/svg">
<path d="M35 5.83331C18.9 5.83331 5.83333 18.9 5.83333 35C5.83333 51.1 18.9 64.1667 35 64.1667H49.5833V58.3333H35C22.3417 58.3333 11.6667 47.6583 11.6667 35C11.6667 22.3416 22.3417 11.6666 35 11.6666C47.6583 11.6666 58.3333 22.3416 58.3333 35V39.1708C58.3333 41.475 56.2625 43.75 53.9583 43.75C51.6542 43.75 49.5833 41.475 49.5833 39.1708V35C49.5833 26.95 43.05 20.4166 35 20.4166C26.95 20.4166 20.4167 26.95 20.4167 35C20.4167 43.05 26.95 49.5833 35 49.5833C39.025 49.5833 42.7 47.95 45.325 45.2958C47.2208 47.8917 50.4875 49.5833 53.9583 49.5833C59.7042 49.5833 64.1667 44.9167 64.1667 39.1708V35C64.1667 18.9 51.1 5.83331 35 5.83331ZM35 43.75C30.1583 43.75 26.25 39.8416 26.25 35C26.25 30.1583 30.1583 26.25 35 26.25C39.8417 26.25 43.75 30.1583 43.75 35C43.75 39.8416 39.8417 43.75 35 43.75Z" fill="#D8FEFF"/>
</svg>
