<svg width="60" height="60" viewBox="0 0 60 60" fill="none" xmlns="http://www.w3.org/2000/svg">
<path fill-rule="evenodd" clip-rule="evenodd" d="M29.9895 1.5C22.9119 1.50367 16.0664 4.01041 10.6771 8.57197C5.2877 13.1335 1.70589 19.4525 0.572106 26.3989C-0.561683 33.3453 0.826466 40.4662 4.48837 46.4884C8.15027 52.5105 13.8471 57.0412 20.5602 59.2702C22.0413 59.5451 22.5991 58.6272 22.5991 57.8467C22.5991 57.0662 22.5695 54.8033 22.5596 52.3293C14.2659 54.121 12.5133 48.8295 12.5133 48.8295C11.1607 45.3934 9.2057 44.4902 9.2057 44.4902C6.50036 42.6543 9.40813 42.6887 9.40813 42.6887C12.4047 42.8998 13.9796 45.7468 13.9796 45.7468C16.6355 50.2775 20.9552 48.9669 22.6534 48.2012C22.92 46.2819 23.6951 44.9762 24.5492 44.2349C17.924 43.4888 10.9632 40.9461 10.9632 29.5874C10.9221 26.6416 12.0215 23.7929 14.0339 21.6305C13.7278 20.8844 12.7059 17.8704 14.3251 13.7766C14.3251 13.7766 16.8281 12.9814 22.5251 16.8151C27.4116 15.4864 32.5673 15.4864 37.4538 16.8151C43.1459 12.9814 45.6439 13.7766 45.6439 13.7766C47.2681 17.8606 46.2462 20.8745 45.9401 21.6305C47.9588 23.7932 49.0605 26.647 49.0157 29.5973C49.0157 40.9805 42.0401 43.4888 35.4051 44.2202C36.4714 45.143 37.4242 46.9445 37.4242 49.713C37.4242 53.6792 37.3897 56.8699 37.3897 57.8467C37.3897 58.637 37.9277 59.5598 39.4384 59.2702C46.1523 57.0409 51.8497 52.5094 55.5116 46.4863C59.1734 40.4631 60.5608 33.3411 59.4257 26.394C58.2907 19.447 54.7071 13.128 49.3159 8.5672C43.9248 4.00643 37.0777 1.50134 29.9993 1.5H29.9895Z" fill="#D8FEFF"/>
<path d="M11.4661 44.0631C11.4019 44.2104 11.1649 44.2546 10.9724 44.1515C10.7799 44.0484 10.6367 43.857 10.7058 43.7048C10.7749 43.5526 11.007 43.5133 11.1995 43.6164C11.392 43.7195 11.5401 43.9159 11.4661 44.0631Z" fill="#D8FEFF"/>
<path d="M12.6757 45.4032C12.5734 45.4544 12.4564 45.4687 12.3448 45.4436C12.2331 45.4185 12.1337 45.3557 12.0635 45.2657C11.871 45.0596 11.8315 44.7749 11.9796 44.6472C12.1277 44.5196 12.3943 44.5785 12.5868 44.7847C12.7793 44.9908 12.8238 45.2755 12.6757 45.4032Z" fill="#D8FEFF"/>
<path d="M13.8505 47.1065C13.6678 47.2341 13.3568 47.1065 13.184 46.8512C13.1362 46.8054 13.0983 46.7505 13.0723 46.6898C13.0463 46.6291 13.0329 46.5638 13.0329 46.4978C13.0329 46.4318 13.0463 46.3665 13.0723 46.3058C13.0983 46.245 13.1362 46.1902 13.184 46.1444C13.3667 46.0216 13.6777 46.1444 13.8505 46.3947C14.0233 46.645 14.0282 46.9788 13.8505 47.1065Z" fill="#D8FEFF"/>
<path d="M15.4452 48.7558C15.2822 48.9375 14.9515 48.8884 14.68 48.6429C14.4084 48.3975 14.3442 48.0637 14.5072 47.887C14.6701 47.7103 15.0008 47.7594 15.2822 47.9999C15.5636 48.2404 15.6179 48.5791 15.4452 48.7558Z" fill="#D8FEFF"/>
<path d="M17.6814 49.7179C17.6073 49.9486 17.2716 50.0517 16.9359 49.9535C16.6002 49.8553 16.3781 49.5804 16.4423 49.3448C16.5064 49.1092 16.8471 49.0012 17.1877 49.1092C17.5283 49.2172 17.7456 49.4774 17.6814 49.7179Z" fill="#D8FEFF"/>
<path d="M20.1204 49.8848C20.1204 50.1253 19.844 50.3315 19.4885 50.3364C19.1331 50.3413 18.8418 50.145 18.8418 49.9044C18.8418 49.6639 19.1182 49.4578 19.4737 49.4529C19.8291 49.4479 20.1204 49.6394 20.1204 49.8848Z" fill="#D8FEFF"/>
<path d="M22.391 49.5068C22.4355 49.7474 22.1886 49.9977 21.8332 50.0566C21.4777 50.1155 21.1667 49.9732 21.1223 49.7375C21.0779 49.5019 21.3346 49.2467 21.6802 49.1829C22.0257 49.1191 22.3466 49.2663 22.391 49.5068Z" fill="#D8FEFF"/>
</svg>
