<svg width="60" height="60" viewBox="0 0 60 60" fill="none" xmlns="http://www.w3.org/2000/svg">
<path d="M52.6426 17.9519C52.6657 18.4799 52.6657 18.9839 52.6657 19.5119C52.6889 35.5199 40.9277 54 19.4196 54C13.076 54 6.84809 52.104 1.5 48.552C2.42608 48.672 3.35215 48.72 4.27823 48.72C9.53371 48.72 14.6503 46.896 18.7945 43.512C13.7937 43.416 9.3948 40.032 7.86678 35.0879C9.62632 35.4479 11.4322 35.3759 13.1454 34.8719C7.70471 33.7679 3.79204 28.7999 3.76889 23.0159C3.76889 22.9679 3.76889 22.9199 3.76889 22.8719C5.38952 23.8079 7.21852 24.3359 9.07067 24.3839C3.9541 20.8319 2.35662 13.7519 5.45898 8.20785C11.409 15.7919 20.1604 20.3759 29.5601 20.8799C28.6109 16.6799 29.9074 12.2639 32.9403 9.28786C37.6401 4.70384 45.0487 4.94384 49.4939 9.81586C52.1101 9.28786 54.6336 8.27985 56.9257 6.86385C56.0459 9.67186 54.2169 12.0479 51.7859 13.5599C54.1011 13.2719 56.37 12.6239 58.5 11.6639C56.9257 14.1119 54.9346 16.2239 52.6426 17.9519Z" fill="#D8FEFF"/>
</svg>
