<svg width="70" height="70" viewBox="0 0 70 70" fill="none" xmlns="http://www.w3.org/2000/svg">
<path d="M50.6917 31.4708L44.275 25.0542C43.4583 24.2375 43.225 23.1 43.5458 22.0792C44.625 18.8125 45.2083 15.3125 45.2083 11.6667C45.2083 10.0625 46.5208 8.75 48.125 8.75H58.3333C59.9375 8.75 61.25 10.0625 61.25 11.6667C61.25 39.0542 39.0542 61.25 11.6667 61.25C10.0625 61.25 8.75 59.9375 8.75 58.3333V48.1542C8.75 46.55 10.0625 45.2375 11.6667 45.2375C15.2833 45.2375 18.8125 44.6542 22.0792 43.575C23.1 43.225 24.2667 43.4875 25.0542 44.275L31.4708 50.6917C39.725 46.4625 46.4917 39.725 50.6917 31.4708Z" fill="#D8FEFF"/>
</svg>
